<svg width="24" height="24" viewBox="0 0 24 24" fill="none" xmlns="http://www.w3.org/2000/svg">
<path d="M19.2989 0.849594H4.70103C2.68607 0.849594 1.05261 2.4975 1.05261 4.5303V19.2574C1.05261 21.2902 2.68607 22.9381 4.70103 22.9381H19.2989C21.3139 22.9381 22.9473 21.2902 22.9473 19.2574V4.5303C22.9473 2.4975 21.3139 0.849594 19.2989 0.849594Z" fill="#4BD30C"/>
<path d="M10.0863 16.2032H10.0568C9.88995 16.1973 9.72616 16.1564 9.57577 16.0833C9.42538 16.0102 9.29167 15.9064 9.18311 15.7785L7.221 13.5356C6.9975 13.2755 6.87998 12.9396 6.89209 12.5956C6.9042 12.2516 7.04504 11.9249 7.28626 11.6815C7.40214 11.5651 7.54055 11.4741 7.69285 11.4141C7.84516 11.3541 8.00809 11.3264 8.17147 11.3328C8.33485 11.3391 8.49517 11.3794 8.64243 11.4511C8.78968 11.5228 8.92071 11.6244 9.02732 11.7494L10.1326 13.0238L15.0147 7.95615C15.1278 7.83663 15.2641 7.74192 15.4151 7.67793C15.5661 7.61394 15.7286 7.58205 15.8924 7.58424C16.0561 7.58644 16.2177 7.62267 16.367 7.69068C16.5163 7.75868 16.65 7.85701 16.7599 7.97951C16.9882 8.23515 17.1126 8.56818 17.1083 8.91223C17.104 9.25627 16.9714 9.58604 16.7368 9.8358L10.9473 15.8315C10.8357 15.9485 10.7021 16.0416 10.5541 16.1055C10.4062 16.1693 10.2471 16.2026 10.0863 16.2032Z" fill="#FBFBFB"/>
</svg>
