<svg width="80" height="80" viewBox="0 0 80 80" fill="none" xmlns="http://www.w3.org/2000/svg">
<rect width="80" height="80" rx="40" fill="#FFEFD4"/>
<g clip-path="url(#clip0_1_195)">
<path d="M30.6256 46.2498C30.337 46.2489 30.0544 46.1682 29.8089 46.0165C29.5634 45.8648 29.3648 45.6481 29.2349 45.3904C29.0496 45.0214 29.0179 44.594 29.1467 44.2017C29.2755 43.8094 29.5544 43.484 29.9224 43.2967L33.0474 41.7342C33.2315 41.6234 33.4365 41.5518 33.6495 41.5238C33.8626 41.4958 34.0791 41.5121 34.2856 41.5716C34.492 41.631 34.684 41.7325 34.8495 41.8695C35.015 42.0065 35.1505 42.1762 35.2474 42.368C35.3444 42.5597 35.4007 42.7694 35.413 42.9839C35.4252 43.1984 35.3931 43.4132 35.3186 43.6147C35.2441 43.8162 35.1289 44.0003 34.98 44.1552C34.8312 44.3102 34.652 44.4328 34.4537 44.5154L31.3287 46.0779C31.1126 46.1936 30.8707 46.2527 30.6256 46.2498Z" fill="#FCA311"/>
<path d="M36.8752 46.2498C36.6301 46.2527 36.3882 46.1936 36.1721 46.0779L33.0471 44.5154C32.8488 44.4328 32.6696 44.3102 32.5207 44.1552C32.3719 44.0003 32.2567 43.8162 32.1822 43.6147C32.1077 43.4132 32.0756 43.1984 32.0878 42.9839C32.1001 42.7694 32.1564 42.5597 32.2534 42.368C32.3503 42.1762 32.4858 42.0065 32.6513 41.8695C32.8168 41.7325 33.0088 41.631 33.2152 41.5716C33.4217 41.5121 33.6382 41.4958 33.8512 41.5238C34.0643 41.5518 34.2693 41.6234 34.4534 41.7342L37.5784 43.2967C37.9464 43.484 38.2253 43.8094 38.3541 44.2017C38.4829 44.594 38.4512 45.0214 38.2659 45.3904C38.136 45.6481 37.9374 45.8648 37.6919 46.0165C37.4464 46.1682 37.1638 46.2489 36.8752 46.2498Z" fill="#FCA311"/>
<path d="M33.7504 53.8594C33.336 53.8594 32.9385 53.6948 32.6455 53.4017C32.3525 53.1087 32.1879 52.7113 32.1879 52.2969V43.125C32.1879 42.7106 32.3525 42.3132 32.6455 42.0201C32.9385 41.7271 33.336 41.5625 33.7504 41.5625C34.1648 41.5625 34.5622 41.7271 34.8552 42.0201C35.1482 42.3132 35.3129 42.7106 35.3129 43.125V52.2969C35.3129 52.7113 35.1482 53.1087 34.8552 53.4017C34.5622 53.6948 34.1648 53.8594 33.7504 53.8594Z" fill="#FCA311"/>
<path d="M33.7504 60.3127C33.336 60.3127 32.9385 60.1481 32.6455 59.8551C32.3525 59.5621 32.1879 59.1646 32.1879 58.7502V56.9846C32.1879 56.5702 32.3525 56.1728 32.6455 55.8798C32.9385 55.5867 33.336 55.4221 33.7504 55.4221C34.1648 55.4221 34.5622 55.5867 34.8552 55.8798C35.1482 56.1728 35.3129 56.5702 35.3129 56.9846V58.7502C35.3129 59.1646 35.1482 59.5621 34.8552 59.8551C34.5622 60.1481 34.1648 60.3127 33.7504 60.3127Z" fill="#FCA311"/>
<path d="M46.2504 60.3124C46.0053 60.3154 45.7634 60.2563 45.5473 60.1406L42.4223 58.5781C42.0842 58.3747 41.8356 58.0509 41.7264 57.6718C41.6172 57.2927 41.6554 56.8863 41.8335 56.5342C42.0115 56.1821 42.3161 55.9104 42.6861 55.7737C43.0562 55.6369 43.4643 55.6452 43.8285 55.7968L46.9535 57.3593C47.3215 57.5466 47.6004 57.872 47.7292 58.2644C47.8581 58.6567 47.8263 59.0841 47.641 59.4531C47.5112 59.7108 47.3125 59.9274 47.067 60.0791C46.8216 60.2308 46.5389 60.3116 46.2504 60.3124Z" fill="#FCA311"/>
<path d="M46.2506 60.3124C45.962 60.3116 45.6794 60.2308 45.4339 60.0791C45.1884 59.9274 44.9898 59.7108 44.8599 59.4531C44.6746 59.0841 44.6429 58.6567 44.7717 58.2644C44.9005 57.872 45.1794 57.5466 45.5474 57.3593L48.6724 55.7968C49.0366 55.6452 49.4447 55.6369 49.8148 55.7737C50.1849 55.9104 50.4895 56.1821 50.6675 56.5342C50.8455 56.8863 50.8837 57.2927 50.7745 57.6718C50.6653 58.0509 50.4167 58.3747 50.0787 58.5781L46.9537 60.1406C46.7376 60.2563 46.4957 60.3154 46.2506 60.3124Z" fill="#FCA311"/>
<path d="M46.2504 60.3123C45.836 60.3123 45.4385 60.1476 45.1455 59.8546C44.8525 59.5616 44.6879 59.1642 44.6879 58.7498V49.5779C44.6879 49.1635 44.8525 48.7661 45.1455 48.473C45.4385 48.18 45.836 48.0154 46.2504 48.0154C46.6648 48.0154 47.0622 48.18 47.3552 48.473C47.6482 48.7661 47.8129 49.1635 47.8129 49.5779V58.7498C47.8129 59.1642 47.6482 59.5616 47.3552 59.8546C47.0622 60.1476 46.6648 60.3123 46.2504 60.3123Z" fill="#FCA311"/>
<path d="M46.2504 46.4531C45.836 46.4531 45.4385 46.2885 45.1455 45.9955C44.8525 45.7025 44.6879 45.305 44.6879 44.8906V43.125C44.6879 42.7106 44.8525 42.3132 45.1455 42.0201C45.4385 41.7271 45.836 41.5625 46.2504 41.5625C46.6648 41.5625 47.0622 41.7271 47.3552 42.0201C47.6482 42.3132 47.8129 42.7106 47.8129 43.125V44.8906C47.8129 45.305 47.6482 45.7025 47.3552 45.9955C47.0622 46.2885 46.6648 46.4531 46.2504 46.4531Z" fill="#FCA311"/>
<path d="M25.9379 54.0625C23.0371 54.0625 20.2551 52.9102 18.2039 50.859C16.1527 48.8078 15.0004 46.0258 15.0004 43.125C15.0004 40.2242 16.1527 37.4422 18.2039 35.391C20.2551 33.3398 23.0371 32.1875 25.9379 32.1875C26.3523 32.1875 26.7497 32.3521 27.0427 32.6451C27.3357 32.9382 27.5004 33.3356 27.5004 33.75C27.5004 34.1644 27.3357 34.5618 27.0427 34.8549C26.7497 35.1479 26.3523 35.3125 25.9379 35.3125C23.8659 35.3125 21.8787 36.1356 20.4136 37.6007C18.9485 39.0659 18.1254 41.053 18.1254 43.125C18.1254 45.197 18.9485 47.1841 20.4136 48.6493C21.8787 50.1144 23.8659 50.9375 25.9379 50.9375C26.3523 50.9375 26.7497 51.1021 27.0427 51.3951C27.3357 51.6882 27.5004 52.0856 27.5004 52.5C27.5004 52.9144 27.3357 53.3118 27.0427 53.6049C26.7497 53.8979 26.3523 54.0625 25.9379 54.0625Z" fill="#FCA311"/>
<path d="M54.0629 54.0625C53.6485 54.0625 53.251 53.8979 52.958 53.6049C52.665 53.3118 52.5004 52.9144 52.5004 52.5C52.5004 52.0856 52.665 51.6882 52.958 51.3951C53.251 51.1021 53.6485 50.9375 54.0629 50.9375C56.1349 50.9375 58.122 50.1144 59.5871 48.6493C61.0523 47.1841 61.8754 45.197 61.8754 43.125C61.8754 41.053 61.0523 39.0659 59.5871 37.6007C58.122 36.1356 56.1349 35.3125 54.0629 35.3125C53.6485 35.3125 53.251 35.1479 52.958 34.8549C52.665 34.5618 52.5004 34.1644 52.5004 33.75C52.5004 33.3356 52.665 32.9382 52.958 32.6451C53.251 32.3521 53.6485 32.1875 54.0629 32.1875C56.9637 32.1875 59.7457 33.3398 61.7968 35.391C63.848 37.4422 65.0004 40.2242 65.0004 43.125C65.0004 46.0258 63.848 48.8078 61.7968 50.859C59.7457 52.9102 56.9637 54.0625 54.0629 54.0625Z" fill="#FCA311"/>
<path d="M54.0629 35.3125C53.6485 35.3125 53.251 35.1479 52.958 34.8549C52.665 34.5618 52.5004 34.1644 52.5004 33.75C52.5004 30.4348 51.1834 27.2554 48.8392 24.9112C46.495 22.567 43.3156 21.25 40.0004 21.25C36.6852 21.25 33.5057 22.567 31.1615 24.9112C28.8173 27.2554 27.5004 30.4348 27.5004 33.75C27.5004 34.1644 27.3357 34.5618 27.0427 34.8549C26.7497 35.1479 26.3523 35.3125 25.9379 35.3125C25.5235 35.3125 25.126 35.1479 24.833 34.8549C24.54 34.5618 24.3754 34.1644 24.3754 33.75C24.3754 29.606 26.0216 25.6317 28.9518 22.7015C31.8821 19.7712 35.8564 18.125 40.0004 18.125C44.1444 18.125 48.1187 19.7712 51.0489 22.7015C53.9792 25.6317 55.6254 29.606 55.6254 33.75C55.6254 34.1644 55.4607 34.5618 55.1677 34.8549C54.8747 35.1479 54.4773 35.3125 54.0629 35.3125Z" fill="#FCA311"/>
<path d="M29.0629 54.0625H25.9379C25.5235 54.0625 25.126 53.8979 24.833 53.6049C24.54 53.3118 24.3754 52.9144 24.3754 52.5C24.3754 52.0856 24.54 51.6882 24.833 51.3951C25.126 51.1021 25.5235 50.9375 25.9379 50.9375H29.0629C29.4773 50.9375 29.8747 51.1021 30.1677 51.3951C30.4607 51.6882 30.6254 52.0856 30.6254 52.5C30.6254 52.9144 30.4607 53.3118 30.1677 53.6049C29.8747 53.8979 29.4773 54.0625 29.0629 54.0625Z" fill="#FCA311"/>
<path d="M54.0629 54.0625H50.9379C50.5235 54.0625 50.126 53.8979 49.833 53.6049C49.54 53.3118 49.3754 52.9144 49.3754 52.5C49.3754 52.0856 49.54 51.6882 49.833 51.3951C50.126 51.1021 50.5235 50.9375 50.9379 50.9375H54.0629C54.4773 50.9375 54.8747 51.1021 55.1677 51.3951C55.4607 51.6882 55.6254 52.0856 55.6254 52.5C55.6254 52.9144 55.4607 53.3118 55.1677 53.6049C54.8747 53.8979 54.4773 54.0625 54.0629 54.0625Z" fill="#FCA311"/>
<path d="M41.5629 54.0625H38.4379C38.0235 54.0625 37.626 53.8979 37.333 53.6049C37.04 53.3118 36.8754 52.9144 36.8754 52.5C36.8754 52.0856 37.04 51.6882 37.333 51.3951C37.626 51.1021 38.0235 50.9375 38.4379 50.9375H41.5629C41.9773 50.9375 42.3747 51.1021 42.6677 51.3951C42.9607 51.6882 43.1254 52.0856 43.1254 52.5C43.1254 52.9144 42.9607 53.3118 42.6677 53.6049C42.3747 53.8979 41.9773 54.0625 41.5629 54.0625Z" fill="#FCA311"/>
</g>
<defs>
<clipPath id="clip0_1_195">
<rect width="50" height="50" fill="white" transform="translate(15 15)"/>
</clipPath>
</defs>
</svg>
