<svg width="24" height="24" viewBox="0 0 24 24" fill="none" xmlns="http://www.w3.org/2000/svg">
<path d="M21.8869 5.9682C21.8427 5.90896 21.7873 5.85901 21.7238 5.8212C21.6603 5.78339 21.59 5.75846 21.5168 5.74784C21.4437 5.73722 21.3692 5.74111 21.2976 5.7593C21.2259 5.77748 21.1586 5.80961 21.0994 5.85383L12.0263 12.6263C11.9938 12.6507 11.9543 12.6638 11.9138 12.6638C11.8732 12.6638 11.8337 12.6507 11.8013 12.6263L2.90626 5.82383C2.84753 5.77901 2.78055 5.74621 2.70915 5.72728C2.63774 5.70835 2.56331 5.70367 2.4901 5.71351C2.41688 5.72334 2.34633 5.7475 2.28245 5.78461C2.21857 5.82172 2.16263 5.87104 2.11782 5.92977C2.07301 5.98849 2.0402 6.05547 2.02127 6.12687C2.00234 6.19828 1.99766 6.27271 2.0075 6.34592C2.01733 6.41914 2.0415 6.4897 2.0786 6.55357C2.11571 6.61745 2.16503 6.67339 2.22376 6.7182L9.21751 12.0676L2.30063 17.2801C2.24104 17.3245 2.19079 17.3803 2.15275 17.4441C2.11471 17.508 2.08962 17.5787 2.07891 17.6523C2.0682 17.7259 2.07209 17.8008 2.09034 17.8729C2.1086 17.9449 2.14087 18.0127 2.18532 18.0723C2.22976 18.1319 2.28551 18.1821 2.34937 18.2201C2.41324 18.2582 2.48397 18.2833 2.55753 18.294C2.63109 18.3047 2.70604 18.3008 2.7781 18.2826C2.85016 18.2643 2.91792 18.232 2.97751 18.1876L10.1456 12.7763L11.1169 13.5263C11.3433 13.6997 11.6201 13.7945 11.9053 13.7966C12.1905 13.7986 12.4686 13.7077 12.6975 13.5376L13.7175 12.7763L20.97 18.1876C21.0292 18.2318 21.0966 18.2639 21.1682 18.282C21.2398 18.3002 21.3143 18.3041 21.3874 18.2935C21.4606 18.2829 21.5309 18.2579 21.5944 18.2202C21.6579 18.1824 21.7133 18.1324 21.7575 18.0732C21.8017 18.014 21.8338 17.9466 21.852 17.875C21.8701 17.8034 21.874 17.7289 21.8634 17.6558C21.8528 17.5826 21.8279 17.5123 21.7901 17.4488C21.7523 17.3853 21.7023 17.3299 21.6431 17.2857L14.6569 12.0657L21.7725 6.75008C21.8905 6.66096 21.9687 6.52894 21.9901 6.38261C22.0115 6.23627 21.9744 6.0874 21.8869 5.9682Z" fill="#FBFBFB"/>
<path d="M21.1875 3.5625H2.8125C2.06658 3.5625 1.35121 3.85882 0.823762 4.38626C0.296316 4.91371 0 5.62908 0 6.375L0 17.625C0 18.3709 0.296316 19.0863 0.823762 19.6137C1.35121 20.1412 2.06658 20.4375 2.8125 20.4375H21.1875C21.9334 20.4375 22.6488 20.1412 23.1762 19.6137C23.7037 19.0863 24 18.3709 24 17.625V6.375C24 5.62908 23.7037 4.91371 23.1762 4.38626C22.6488 3.85882 21.9334 3.5625 21.1875 3.5625ZM22.875 17.625C22.875 18.0726 22.6972 18.5018 22.3807 18.8182C22.0643 19.1347 21.6351 19.3125 21.1875 19.3125H2.8125C2.36495 19.3125 1.93572 19.1347 1.61926 18.8182C1.30279 18.5018 1.125 18.0726 1.125 17.625V6.375C1.125 5.92745 1.30279 5.49823 1.61926 5.18176C1.93572 4.86529 2.36495 4.6875 2.8125 4.6875H21.1875C21.6351 4.6875 22.0643 4.86529 22.3807 5.18176C22.6972 5.49823 22.875 5.92745 22.875 6.375V17.625Z" fill="#FBFBFB"/>
</svg>
