<svg width="27" height="27" viewBox="0 0 27 27" fill="none" xmlns="http://www.w3.org/2000/svg">
<path d="M19.6875 7.3125H19.6988M7.875 2.25H19.125C22.2316 2.25 24.75 4.7684 24.75 7.875V19.125C24.75 22.2316 22.2316 24.75 19.125 24.75H7.875C4.7684 24.75 2.25 22.2316 2.25 19.125V7.875C2.25 4.7684 4.7684 2.25 7.875 2.25ZM18 12.7912C18.1388 13.7275 17.9789 14.6837 17.543 15.5239C17.107 16.364 16.4173 17.0453 15.5718 17.4709C14.7264 17.8964 13.7683 18.0445 12.8338 17.8942C11.8993 17.7438 11.036 17.3026 10.3667 16.6333C9.69741 15.964 9.2562 15.1007 9.10583 14.1662C8.95545 13.2317 9.10357 12.2736 9.52912 11.4282C9.95466 10.5827 10.636 9.89296 11.4761 9.45702C12.3163 9.02108 13.2725 8.86116 14.2088 9C15.1638 9.14162 16.048 9.58665 16.7307 10.2693C17.4134 10.952 17.8584 11.8362 18 12.7912Z" stroke="#FBFBFB" stroke-width="2.25" stroke-linecap="round" stroke-linejoin="round"/>
</svg>
