<svg width="80" height="80" viewBox="0 0 80 80" fill="none" xmlns="http://www.w3.org/2000/svg">
<rect width="80" height="80" rx="40" fill="#FFEFD4"/>
<path d="M23.7838 18.6936C24.8116 18.2765 25.9409 18.1682 27.0299 18.3811C28.1193 18.5941 29.124 19.1195 29.9147 19.8958C30.7056 20.6723 31.2469 21.6656 31.4665 22.7502C31.6859 23.8349 31.5721 24.9589 31.1413 25.9788C30.7104 26.9983 29.9829 27.8651 29.0553 28.4729C28.1281 29.0804 27.0411 29.4028 25.9313 29.4026C25.1939 29.4024 24.4626 29.2603 23.7799 28.9827C23.0972 28.705 22.475 28.2971 21.9499 27.7815C21.4248 27.2659 21.0069 26.652 20.7213 25.9749C20.4358 25.2976 20.2884 24.5707 20.2887 23.8362C20.2893 22.7296 20.6248 21.6499 21.2487 20.7346C21.8724 19.8198 22.7559 19.1109 23.7838 18.6936Z" stroke="#FCA311" stroke-width="2.88462"/>
<path d="M26.2208 31.0798C27.2367 31.0806 28.229 31.3953 29.0577 31.9822C29.8854 32.5685 30.5087 33.3984 30.835 34.3582C31.1464 35.2676 31.4665 35.9361 31.9444 36.4128H31.9454C32.9699 37.436 34.6641 38.6936 37.046 39.0837C38.8268 39.3758 40.0167 40.9506 40.0167 42.6326V42.7292C40.015 43.2436 39.9012 43.7514 39.6846 44.2175C39.4681 44.6834 39.1539 45.0965 38.7647 45.4304C38.3754 45.7644 37.9198 46.0121 37.4288 46.158C36.9378 46.3038 36.421 46.3445 35.9131 46.2791H35.9122C33.8356 46.0087 32.251 45.4433 31.088 44.8474V57.3777C31.0879 58.0231 30.9592 58.6618 30.7081 59.2566C30.457 59.8514 30.0891 60.3901 29.628 60.8425C29.167 61.2947 28.6212 61.6519 28.0225 61.8953C27.4237 62.1386 26.7824 62.2634 26.1358 62.2634C25.4894 62.2634 24.8487 62.1385 24.2501 61.8953C23.6512 61.6519 23.1047 61.2949 22.6436 60.8425C22.1825 60.3901 21.8156 59.8513 21.5645 59.2566C21.3134 58.6618 21.1837 58.0231 21.1837 57.3777V35.8875C21.1832 35.2529 21.3103 34.6247 21.5567 34.0398C21.8032 33.4546 22.164 32.9245 22.6172 32.4792C23.0706 32.0339 23.6083 31.6817 24.1973 31.4421C24.7862 31.2027 25.4169 31.0798 26.0528 31.0798H26.2208Z" stroke="#FCA311" stroke-width="2.88462"/>
<path d="M52.1387 18.6936C53.1664 18.2763 54.2957 18.1684 55.3848 18.3811C56.4741 18.5939 57.4788 19.1188 58.2696 19.8948C59.0606 20.6711 59.6025 21.6638 59.8223 22.7483C60.0422 23.8329 59.9286 24.9569 59.4981 25.9768C59.0677 26.9965 58.3405 27.8638 57.4131 28.4719C56.4861 29.0797 55.3989 29.4023 54.2891 29.4026C53.5516 29.4027 52.8206 29.2611 52.1377 28.9836C51.4547 28.7061 50.8321 28.2981 50.3067 27.7825C49.7813 27.2668 49.3629 26.6532 49.0772 25.9758C48.7914 25.2984 48.6442 24.571 48.6446 23.8362C48.6451 22.7299 48.9799 21.6508 49.6035 20.7356C50.2272 19.8206 51.1107 19.111 52.1387 18.6936Z" stroke="#FCA311" stroke-width="2.88462"/>
<path d="M54.1678 31.0564C55.4502 31.0564 56.6853 31.5562 57.6004 32.4539C58.5163 33.3525 59.0368 34.5772 59.0369 35.8601V57.3503C59.0369 58.6552 58.5077 59.9011 57.576 60.8152C56.6454 61.7281 55.3892 62.236 54.0848 62.2361C52.7802 62.2361 51.5233 61.7283 50.5926 60.8152C49.6609 59.9011 49.1317 58.6552 49.1317 57.3503V44.825C47.9687 45.4207 46.3846 45.9863 44.3084 46.2566H44.3065C43.7988 46.322 43.2826 46.2812 42.7918 46.1355C42.3008 45.9897 41.8452 45.742 41.4559 45.408C41.0665 45.0739 40.7525 44.6602 40.5359 44.1941C40.3195 43.728 40.2056 43.2211 40.2039 42.7068V42.6101C40.2039 40.927 41.395 39.3524 43.1746 39.0603L43.6131 38.9773C45.7659 38.514 47.3152 37.3498 48.2752 36.3904L48.2762 36.3894C48.7546 35.912 49.0761 35.2423 49.3826 34.3396L49.4471 34.1599C49.7872 33.2742 50.3849 32.5092 51.1619 31.9587C51.9907 31.3717 52.9838 31.0571 53.9998 31.0564H54.1678Z" stroke="#FCA311" stroke-width="2.88462"/>
</svg>
