<svg width="206" height="25" viewBox="0 0 206 25" fill="none" xmlns="http://www.w3.org/2000/svg">
<path d="M9.40799 24.64V5.856H-6.97374e-06V1.6H23.04V5.856H13.664V24.64H9.40799ZM33.2092 24.64C32.3986 24.64 31.6626 24.4373 31.0012 24.032C30.3399 23.6267 29.8066 23.0933 29.4012 22.432C28.9959 21.7707 28.7932 21.0347 28.7932 20.224V10.496C28.7932 9.68533 28.9959 8.94933 29.4012 8.288C29.8066 7.62666 30.3399 7.09333 31.0012 6.688C31.6626 6.28266 32.3986 6.08 33.2092 6.08H43.2252C44.0359 6.08 44.7719 6.28266 45.4332 6.688C46.1159 7.09333 46.6492 7.62666 47.0332 8.288C47.4386 8.94933 47.6412 9.68533 47.6412 10.496V17.472H32.9852V20.064C32.9852 20.1707 33.0172 20.2667 33.0812 20.352C33.1666 20.416 33.2626 20.448 33.3692 20.448H47.6412V24.64H33.2092ZM32.9852 13.696H43.4492V10.656C43.4492 10.5493 43.4066 10.464 43.3212 10.4C43.2572 10.3147 43.1719 10.272 43.0652 10.272H33.3692C33.2626 10.272 33.1666 10.3147 33.0812 10.4C33.0172 10.464 32.9852 10.5493 32.9852 10.656V13.696ZM58.1355 24.64C57.3248 24.64 56.5888 24.4373 55.9275 24.032C55.2662 23.6267 54.7328 23.0933 54.3275 22.432C53.9222 21.7707 53.7195 21.0347 53.7195 20.224V10.496C53.7195 9.68533 53.9222 8.94933 54.3275 8.288C54.7328 7.62666 55.2662 7.09333 55.9275 6.688C56.5888 6.28266 57.3248 6.08 58.1355 6.08H72.5355V10.272H58.2955C58.1888 10.272 58.0928 10.3147 58.0075 10.4C57.9435 10.464 57.9115 10.5493 57.9115 10.656V20.064C57.9115 20.1707 57.9435 20.2667 58.0075 20.352C58.0928 20.416 58.1888 20.448 58.2955 20.448H72.5675V24.64H58.1355ZM78.8042 24.64V-1.90735e-06H82.9962V6.08H93.2362C94.0469 6.08 94.7829 6.28266 95.4442 6.688C96.1056 7.09333 96.6389 7.62666 97.0442 8.288C97.4496 8.94933 97.6522 9.68533 97.6522 10.496V24.64H93.4602V10.656C93.4602 10.5493 93.4176 10.464 93.3322 10.4C93.2682 10.3147 93.1829 10.272 93.0762 10.272H83.3802C83.2736 10.272 83.1776 10.3147 83.0922 10.4C83.0282 10.464 82.9962 10.5493 82.9962 10.656V24.64H78.8042ZM103.763 24.64V1.6H108.403L122.547 18.432V1.6H126.803V24.64H122.163L107.987 7.776V24.64H103.763ZM138.164 24.64C137.354 24.64 136.618 24.4373 135.956 24.032C135.295 23.6267 134.762 23.0933 134.356 22.432C133.951 21.7707 133.748 21.0347 133.748 20.224V10.496C133.748 9.68533 133.951 8.94933 134.356 8.288C134.762 7.62666 135.295 7.09333 135.956 6.688C136.618 6.28266 137.354 6.08 138.164 6.08H148.18C148.991 6.08 149.727 6.28266 150.388 6.688C151.071 7.09333 151.604 7.62666 151.988 8.288C152.394 8.94933 152.596 9.68533 152.596 10.496V20.224C152.596 21.0347 152.394 21.7707 151.988 22.432C151.604 23.0933 151.082 23.6267 150.42 24.032C149.759 24.4373 149.012 24.64 148.18 24.64H138.164ZM138.324 20.448H148.02C148.127 20.448 148.212 20.416 148.276 20.352C148.362 20.2667 148.404 20.1707 148.404 20.064V10.656C148.404 10.5493 148.362 10.464 148.276 10.4C148.212 10.3147 148.127 10.272 148.02 10.272H138.324C138.218 10.272 138.122 10.3147 138.036 10.4C137.972 10.464 137.94 10.5493 137.94 10.656V20.064C137.94 20.1707 137.972 20.2667 138.036 20.352C138.122 20.416 138.218 20.448 138.324 20.448ZM167.954 24.64L157.746 6.08H162.578L169.906 19.552L177.202 6.08H182.034L171.794 24.64H167.954ZM191.236 24.64C190.426 24.64 189.679 24.4373 188.996 24.032C188.335 23.6267 187.802 23.0933 187.396 22.432C187.012 21.7707 186.82 21.0347 186.82 20.224V13.248H201.476V10.656C201.476 10.5493 201.434 10.464 201.348 10.4C201.284 10.3147 201.199 10.272 201.092 10.272H186.82V6.08H201.252C202.063 6.08 202.799 6.28266 203.46 6.688C204.143 7.09333 204.676 7.62666 205.06 8.288C205.466 8.94933 205.668 9.68533 205.668 10.496V24.64H191.236ZM191.396 20.448H201.476V17.024H191.012V20.064C191.012 20.1707 191.044 20.2667 191.108 20.352C191.194 20.416 191.29 20.448 191.396 20.448Z" fill="#FCA311"/>
</svg>
