<svg width="24" height="24" viewBox="0 0 24 24" fill="none" xmlns="http://www.w3.org/2000/svg">
<path d="M12.2869 17.7188C12.1666 17.7188 12.0483 17.688 11.9433 17.6292C10.2658 16.6907 8.86865 15.3222 7.89558 13.6645C6.9225 12.0067 6.40866 10.1197 6.40692 8.1975C6.40692 8.11938 6.40786 8.04125 6.40973 7.96313C6.44723 6.20531 7.10395 4.72359 8.30911 3.67875C9.37083 2.75719 10.7836 2.25 12.2869 2.25C13.7902 2.25 15.2025 2.75719 16.2657 3.67828C17.4708 4.72313 18.1275 6.20484 18.165 7.96266C18.1669 8.04078 18.1679 8.11891 18.1679 8.19703C18.1661 10.1195 17.652 12.0067 16.6787 13.6645C15.7054 15.3223 14.3079 16.6908 12.63 17.6292C12.5252 17.6879 12.4071 17.7187 12.2869 17.7188ZM12.2869 3.65625C11.1221 3.65625 10.0369 4.04109 9.2302 4.74047C8.33348 5.51812 7.84411 6.64266 7.81552 7.99266C7.81552 8.06062 7.81552 8.12906 7.81552 8.1975C7.817 9.80223 8.22883 11.3799 9.01185 12.7807C9.79487 14.1814 10.9231 15.3586 12.2893 16.2005C13.6554 15.3586 14.7835 14.1813 15.5665 12.7806C16.3494 11.3799 16.7612 9.8022 16.7625 8.1975C16.7625 8.12906 16.7625 8.06062 16.7602 7.99266C16.7316 6.64266 16.2422 5.51812 15.3455 4.74047C14.5369 4.04109 13.4532 3.65625 12.2869 3.65625Z" fill="#FBFBFB"/>
<path d="M12.3015 11.5967C11.6327 11.5967 10.979 11.3984 10.423 11.0268C9.86701 10.6553 9.43364 10.1273 9.17774 9.50946C8.92183 8.89164 8.85487 8.21182 8.98533 7.55595C9.11579 6.90008 9.43781 6.29763 9.91067 5.82477C10.3835 5.35192 10.986 5.0299 11.6418 4.89944C12.2977 4.76898 12.9775 4.83594 13.5953 5.09184C14.2132 5.34775 14.7412 5.78111 15.1127 6.33713C15.4843 6.89315 15.6826 7.54685 15.6826 8.21557C15.6816 9.11199 15.325 9.9714 14.6912 10.6053C14.0573 11.2391 13.1979 11.5957 12.3015 11.5967ZM12.3015 6.24119C11.9109 6.24119 11.529 6.35703 11.2042 6.57405C10.8795 6.79107 10.6264 7.09952 10.4769 7.4604C10.3274 7.82129 10.2884 8.21839 10.3646 8.60148C10.4408 8.98458 10.629 9.33646 10.9052 9.61263C11.1814 9.8888 11.5334 10.0768 11.9165 10.153C12.2996 10.2291 12.6967 10.19 13.0575 10.0404C13.4184 9.89088 13.7268 9.63768 13.9437 9.31286C14.1607 8.98804 14.2764 8.60618 14.2763 8.21557C14.2757 7.69204 14.0674 7.19014 13.6972 6.81999C13.3269 6.44985 12.825 6.24169 12.3015 6.24119Z" fill="#FBFBFB"/>
<path d="M12.2869 21.0939C10.3899 21.0939 8.59552 20.7161 7.23427 20.0303C5.7188 19.2658 4.88583 18.1966 4.88583 17.0158C4.88583 15.4497 6.35068 14.0973 8.80458 13.3989C8.98265 13.3523 9.17191 13.3773 9.3317 13.4687C9.4915 13.5601 9.6091 13.7105 9.65924 13.8876C9.70938 14.0647 9.68806 14.2544 9.59987 14.416C9.51168 14.5775 9.36364 14.6981 9.18755 14.7517C7.4274 15.2528 6.29021 16.1416 6.29021 17.0158C6.29021 18.2814 8.75208 19.6877 12.2851 19.6877C15.818 19.6877 18.2813 18.2814 18.2813 17.0158C18.2813 16.1416 17.1441 15.2528 15.384 14.7517C15.2951 14.7265 15.2122 14.6839 15.1398 14.6266C15.0674 14.5693 15.007 14.4982 14.962 14.4175C14.8713 14.2546 14.8489 14.0623 14.9 13.8829C14.951 13.7035 15.0712 13.5517 15.2342 13.461C15.3971 13.3702 15.5894 13.3479 15.7688 13.3989C18.2227 14.0973 19.6876 15.4497 19.6876 17.0158C19.6876 18.1966 18.8536 19.2658 17.3391 20.0303C15.9779 20.7161 14.1835 21.0939 12.2869 21.0939Z" fill="#FBFBFB"/>
</svg>
