<svg width="80" height="80" viewBox="0 0 80 80" fill="none" xmlns="http://www.w3.org/2000/svg">
<rect width="80" height="80" rx="40" fill="#FFEFD4"/>
<path d="M41.8868 31.0659C43.8378 29.1148 47.0011 29.1165 48.9518 31.0674C50.9028 33.0183 50.9046 36.1815 48.9533 38.1325C47.0023 40.0835 43.8393 40.0818 41.8883 38.131C39.9374 36.1801 39.9358 33.0169 41.8868 31.0659ZM47.1841 32.8351C46.2086 31.8596 44.6283 31.8599 43.6546 32.8336C42.6808 33.8074 42.6806 35.3877 43.6561 36.3632C44.6316 37.3388 46.2118 37.3385 47.1856 36.3647C48.1593 35.391 48.1598 33.8107 47.1841 32.8351Z" fill="#FCA311"/>
<path d="M44.372 51.2625C42.9797 51.9225 41.265 51.6767 40.1132 50.5247L38.59 49.0018L36.7599 52.052C36.5619 52.3822 36.2228 52.6025 35.8408 52.6497C35.4587 52.6967 35.0763 52.565 34.8041 52.293L27.7274 45.2163C27.4552 44.944 27.3236 44.5615 27.3707 44.1792C27.4178 43.7972 27.6384 43.458 27.9687 43.26L31.0198 41.4315L29.4952 39.9069C28.3434 38.7551 28.0975 37.0403 28.7576 35.6481L25.9584 32.8489C25.4702 32.3608 25.4702 31.5693 25.9584 31.0812L28.608 28.4315C30.9156 26.124 34.3519 25.6332 37.1396 26.9592L39.4832 24.6156C43.6237 20.4751 49.7207 18.976 55.3092 20.7244C57.2112 21.3194 58.7005 22.8089 59.2957 24.7108C61.044 30.2992 59.545 36.3963 55.4045 40.5367L53.061 42.8802C54.3875 45.668 53.8967 49.1048 51.589 51.4123L48.9392 54.062C48.4512 54.5502 47.6597 54.5502 47.1715 54.062L44.372 51.2625ZM54.5627 23.1103C49.8622 21.6397 44.7337 22.9007 41.251 26.3834L39.2123 28.4221L39.2217 28.4315L37.4539 30.1993L37.4445 30.1899L32.1397 35.4947L32.1491 35.5041L31.1429 36.5103C30.7788 36.9997 30.8188 37.695 31.263 38.1391L41.881 48.757C42.326 49.2022 43.0232 49.2415 43.513 48.8747L44.5165 47.8713L44.5255 47.8802L49.8302 42.5755L49.8212 42.5665L51.589 40.7988L51.598 40.8078L53.6367 38.769C57.1195 35.2863 58.3802 30.1579 56.9097 25.4573C56.5595 24.3376 55.6825 23.4607 54.5627 23.1103ZM46.2932 49.648L48.0555 51.4103L49.8212 49.6445C51.1282 48.3375 51.5612 46.4877 51.1202 44.821L46.2932 49.648ZM35.1988 28.9C33.5322 28.4594 31.6826 28.8925 30.3758 30.1993L28.61 31.965L30.3719 33.7269L35.1988 28.9ZM36.7678 47.1795L32.8422 43.254L30.6278 44.581L35.4398 49.393L36.7678 47.1795Z" fill="#FCA311"/>
<path d="M29.5064 52.2808C29.9945 51.7928 29.9945 51.0013 29.5064 50.5131C29.0182 50.0251 28.2268 50.0251 27.7386 50.5131L23.3182 54.9336C22.83 55.4218 22.83 56.2131 23.3182 56.7013C23.8064 57.1896 24.5978 57.1896 25.086 56.7013L29.5064 52.2808Z" fill="#FCA311"/>
<path d="M25.9686 46.9749C26.4568 47.4631 26.4568 48.2546 25.9686 48.7429L24.1964 50.5149C23.7082 51.0031 22.9168 51.0031 22.4286 50.5149C21.9405 50.0269 21.9405 49.2354 22.4286 48.7471L24.2008 46.9749C24.689 46.4869 25.4805 46.4869 25.9686 46.9749Z" fill="#FCA311"/>
<path d="M33.0453 55.8193C33.5334 55.3313 33.5334 54.5398 33.0453 54.0515C32.5571 53.5635 31.7657 53.5635 31.2775 54.0515L29.5053 55.8238C29.0171 56.312 29.0171 57.1035 29.5053 57.5915C29.9934 58.0798 30.7849 58.0798 31.273 57.5915L33.0453 55.8193Z" fill="#FCA311"/>
</svg>
