<svg width="64" height="64" viewBox="0 0 64 64" fill="none" xmlns="http://www.w3.org/2000/svg">
<rect x="0.5" y="0.5" width="63" height="63" rx="31.5" fill="white"/>
<rect x="0.5" y="0.5" width="63" height="63" rx="31.5" stroke="#FFDDA1"/>
<path fill-rule="evenodd" clip-rule="evenodd" d="M49.6211 36.1645C49.3691 35.3885 48.9321 34.6775 48.3241 34.0345C47.6871 33.3625 46.8501 32.8425 45.8121 32.4665C44.7731 32.0935 43.4391 31.9045 41.7951 31.9045H39.5641C39.8301 29.1585 40.8081 26.8215 42.5001 24.8895C44.1891 22.9635 46.5311 21.2685 49.5251 19.8145L47.7091 17.0005C43.7671 18.6795 40.3941 21.1355 37.5921 24.3795C34.7911 27.6265 33.3961 30.8435 33.3961 34.0345C33.3961 37.4625 34.2051 40.1515 35.8361 42.0925C37.4671 44.0335 39.8031 45.0005 42.8401 45.0005C44.7671 45.0005 46.4411 44.3575 47.8651 43.0725C49.2871 41.7895 50.0001 40.2865 50.0001 38.5725C50.0001 37.7455 49.8751 36.9405 49.6211 36.1645ZM29.2251 36.1645C28.9711 35.3885 28.5351 34.6775 27.9261 34.0345C27.2911 33.3625 26.4531 32.8425 25.4141 32.4665C24.3771 32.0935 23.0431 31.9045 21.3981 31.9045H19.1661C19.4331 29.1585 20.4101 26.8215 22.1011 24.8895C23.7911 22.9635 26.1351 21.2685 29.1271 19.8145L27.3121 17.0005C23.3691 18.6795 19.9981 21.1355 17.1951 24.3795C14.3941 27.6265 13.0001 30.8435 13.0001 34.0345C13.0001 37.4625 13.8071 40.1515 15.4391 42.0925C17.0681 44.0335 19.4041 45.0005 22.4431 45.0005C24.3691 45.0005 26.0451 44.3575 27.4691 43.0725C28.8911 41.7895 29.6031 40.2865 29.6031 38.5725C29.6031 37.7455 29.4761 36.9405 29.2251 36.1645Z" fill="#FFDDA1"/>
</svg>
