<svg width="24" height="24" viewBox="0 0 24 24" fill="none" xmlns="http://www.w3.org/2000/svg">
<path d="M14.6762 22.6342C14.4188 22.6367 14.1659 22.5674 13.9458 22.4341C13.7257 22.3008 13.5471 22.1088 13.43 21.8796L10.6608 16.6389C10.5805 16.4769 10.5667 16.2899 10.6224 16.1179C10.6781 15.9459 10.799 15.8025 10.959 15.7184C11.1191 15.6343 11.3057 15.6162 11.4789 15.6679C11.6522 15.7196 11.7983 15.837 11.8862 15.995L14.6554 21.2358L21.2738 3.29116L3.27385 9.81962L10.0585 13.4612L15.8185 7.70116C15.9488 7.5708 16.1256 7.49756 16.31 7.49756C16.4944 7.49756 16.6712 7.5708 16.8015 7.70116C16.9319 7.83153 17.0051 8.00834 17.0051 8.1927C17.0051 8.37706 16.9319 8.55387 16.8015 8.68424L10.6746 14.8042C10.5705 14.9085 10.4357 14.9769 10.29 14.9993C10.1444 15.0217 9.99531 14.997 9.86462 14.9289L2.64385 11.0935C2.3911 10.9752 2.18 10.7833 2.03821 10.5429C1.89642 10.3026 1.83057 10.025 1.84928 9.74656C1.86799 9.46813 1.97039 9.20186 2.14307 8.98264C2.31574 8.76342 2.55063 8.60149 2.81693 8.51808L20.7546 1.95501C21.0083 1.84801 21.2882 1.81908 21.5584 1.87194C21.8287 1.9248 22.077 2.05703 22.2717 2.25174C22.4664 2.44645 22.5987 2.69479 22.6515 2.96503C22.7044 3.23527 22.6755 3.51513 22.5685 3.76885L16.0054 21.7065C15.9152 21.966 15.7498 22.1927 15.5304 22.3579C15.3109 22.5231 15.0473 22.6193 14.7731 22.6342H14.6762Z" fill="#0F0F0F"/>
</svg>
