<svg width="30" height="29" viewBox="0 0 30 29" fill="none" xmlns="http://www.w3.org/2000/svg">
<path d="M13.9905 0.581212C14.3479 -0.19366 15.4492 -0.193658 15.8066 0.581213L19.4604 8.50268C19.6061 8.81849 19.9054 9.03593 20.2507 9.07688L28.9136 10.104C29.761 10.2045 30.1013 11.2519 29.4748 11.8312L23.0701 17.7541C22.8148 17.9902 22.7005 18.342 22.7682 18.6832L24.4684 27.2394C24.6347 28.0764 23.7437 28.7237 22.9991 28.3069L15.387 24.046C15.0835 23.8761 14.7136 23.8761 14.4101 24.046L6.79796 28.3069C6.05335 28.7237 5.16239 28.0764 5.3287 27.2394L7.02882 18.6832C7.0966 18.342 6.98228 17.9902 6.72694 17.7541L0.322273 11.8312C-0.304227 11.2519 0.036091 10.2045 0.883485 10.104L9.54634 9.07688C9.8917 9.03593 10.191 8.81848 10.3367 8.50268L13.9905 0.581212Z" fill="#FCA311"/>
</svg>
