<svg width="80" height="80" viewBox="0 0 80 80" fill="none" xmlns="http://www.w3.org/2000/svg">
<rect width="80" height="80" rx="40" fill="#FFEFD4"/>
<path d="M22.271 47.6004C22.1675 46.8379 21.5138 46.25 20.7228 46.25C19.9317 46.25 19.278 46.8379 19.1745 47.6004L19.1603 47.8125V55.109L19.1716 55.4719C19.3516 58.3517 21.6589 60.6546 24.5404 60.8277L24.8894 60.8381H32.1811L32.3931 60.824C33.1558 60.7204 33.7436 60.0667 33.7436 59.2756C33.7436 58.4846 33.1558 57.8308 32.3931 57.7275L32.1811 57.7131H24.8894L24.6232 57.6998C23.3976 57.5752 22.4232 56.6008 22.2987 55.3752L22.2853 55.109V47.8125L22.271 47.6004Z" fill="#FCA311"/>
<path d="M60.8127 47.6004C60.7094 46.8379 60.0557 46.25 59.2646 46.25C58.4017 46.25 57.7021 46.9496 57.7021 47.8125V55.109L57.6886 55.3752C57.5552 56.6885 56.4463 57.7131 55.0979 57.7131H47.8063L47.5942 57.7275C46.8315 57.8308 46.2438 58.4846 46.2438 59.2756C46.2438 60.1385 46.9434 60.8381 47.8063 60.8381H55.0979L55.4469 60.8277C58.4486 60.6473 60.8271 58.156 60.8271 55.109V47.8125L60.8127 47.6004Z" fill="#FCA311"/>
<path d="M33.7436 20.7291C33.7436 19.8662 33.044 19.1666 32.1811 19.1666H24.8894L24.5404 19.1771C21.5388 19.3575 19.1603 21.8489 19.1603 24.8958V32.1923L19.1745 32.4044C19.278 33.167 19.9317 33.7548 20.7228 33.7548C21.5857 33.7548 22.2853 33.0553 22.2853 32.1923V24.8958L22.2987 24.6295C22.4321 23.3164 23.5411 22.2916 24.8894 22.2916H32.1811L32.3931 22.2774C33.1558 22.1739 33.7436 21.5202 33.7436 20.7291Z" fill="#FCA311"/>
<path d="M55.4469 19.1771L55.0979 19.1666H47.8063L47.5942 19.1809C46.8315 19.2844 46.2438 19.9381 46.2438 20.7291C46.2438 21.5202 46.8315 22.1739 47.5942 22.2774L47.8063 22.2916H55.0979L55.3642 22.3051C56.5898 22.4295 57.5642 23.4039 57.6886 24.6295L57.7021 24.8958V32.1923L57.7163 32.4044C57.8198 33.167 58.4736 33.7548 59.2646 33.7548C60.0557 33.7548 60.7094 33.167 60.8127 32.4044L60.8271 32.1923V24.8958L60.8156 24.5329C60.6359 21.6532 58.3284 19.3502 55.4469 19.1771Z" fill="#FCA311"/>
<path d="M46.4996 43.125C46.4996 46.7149 43.5895 49.625 39.9996 49.625C36.4098 49.625 33.4996 46.7149 33.4996 43.125C33.4996 39.5351 36.4098 36.625 39.9996 36.625C43.5895 36.625 46.4996 39.5351 46.4996 43.125ZM36.0996 43.125C36.0996 45.2789 37.8457 47.025 39.9996 47.025C42.1535 47.025 43.8996 45.2789 43.8996 43.125C43.8996 40.9711 42.1535 39.225 39.9996 39.225C37.8457 39.225 36.0996 40.9711 36.0996 43.125Z" fill="#FCA311"/>
<path d="M27.938 39.4656L27.9206 39.5083L27.9189 39.5129C27.6137 40.3169 26.7155 40.7235 25.9095 40.4212C24.6652 39.9548 24.9977 38.4027 25.0022 38.391L25.0142 38.3602C25.0239 38.3356 25.0369 38.3033 25.0534 38.2638C25.0864 38.1846 25.1334 38.076 25.1955 37.9423C25.3196 37.675 25.5046 37.3058 25.7595 36.869C26.2681 35.9971 27.0626 34.842 28.2178 33.6868C30.5522 31.3524 34.3212 29.0625 39.9997 29.0625C45.6783 29.0625 49.4472 31.3524 51.7816 33.6868C52.937 34.842 53.7314 35.9971 54.2401 36.869C54.4949 37.3058 54.6799 37.675 54.8041 37.9423C54.8662 38.076 54.9131 38.1846 54.9462 38.2638C54.9626 38.3033 54.9756 38.3356 54.9853 38.3602L54.9972 38.391L55.0014 38.4019L55.0031 38.4062L55.0045 38.4098C55.3074 39.2177 54.8981 40.1183 54.0901 40.4212C53.2849 40.7233 52.3897 40.3006 52.0789 39.5088L52.0614 39.4656C52.0614 39.4656 52.0133 39.3523 51.9695 39.2583C51.882 39.0698 51.7416 38.7879 51.5408 38.4435C51.1378 37.7529 50.5001 36.8246 49.572 35.8965C47.7397 34.0643 44.7378 32.1875 39.9997 32.1875C35.2616 32.1875 32.2598 34.0643 30.4275 35.8965C29.4994 36.8246 28.8616 37.7529 28.4588 38.4435C28.258 38.7879 28.1174 39.0698 28.0299 39.2583C27.9862 39.3523 27.9559 39.4229 27.938 39.4656Z" fill="#FCA311"/>
</svg>
